<?xml version="1.0" encoding="utf-8"?>
<!-- Svg Vector Icons : http://www.onlinewebfonts.com/icon -->
<!DOCTYPE svg PUBLIC "-//W3C//DTD SVG 1.1//EN" "http://www.w3.org/Graphics/SVG/1.1/DTD/svg11.dtd">
<svg version="1.1" xmlns="http://www.w3.org/2000/svg" xmlns:xlink="http://www.w3.org/1999/xlink" x="0px" y="0px" viewBox="0 0 256 256" enable-background="new 0 0 256 256" xml:space="preserve">
<metadata> Svg Vector Icons : http://www.onlinewebfonts.com/icon </metadata>
<g><g><g><path fill="#000000" d="M120.4,10.3c-20.7,2.8-38.4,15.1-47.5,33c-2.6,5.1-3.9,8.7-5.3,14.5c-0.8,3.4-0.9,5.4-0.9,14.1c0,11.2,0.4,13.4,3,19.5c5.3,12.6,17,25.7,29.6,33c4.3,2.5,9.8,4.8,15.5,6.3c4.1,1.1,5.2,1.2,13.3,1.2c8,0,9.1-0.1,13.3-1.2c11.6-3.2,20.6-8.4,29.6-17.3c6.7-6.6,12.6-15.1,15.6-22.3c2.4-5.9,2.8-8.3,2.9-19.2c0-9.6,0-10.4-1.1-14.6c-3.3-12.2-8.6-21.2-17.8-30.1c-8.8-8.4-19.4-14-31-16.3C134.8,10.1,124.8,9.7,120.4,10.3z"/><path fill="#000000" d="M112.7,150.9c-17.6,2-38.4,7.3-59.4,15c-3.8,1.4-4.1,1.5-4.8,3.4c-5.6,14.8-25.5,68-25.4,68.1c0.5,0.6,30.8,4.4,47,5.9c23.6,2.2,34.8,2.7,57.1,2.7c24.8,0,41.4-0.9,67.9-3.7c11.8-1.2,34.6-4.2,36.6-4.7l1.2-0.3l-13-34.8c-7.2-19.1-13.2-34.9-13.3-35c-0.3-0.3-7.6-3.1-12.6-4.8c-17-6-34.5-10-50.1-11.8C136.3,150.1,119.9,150.1,112.7,150.9z"/></g></g></g>
</svg>